<svg version="1.1" xmlns="http://www.w3.org/2000/svg" xmlns:xlink="http://www.w3.org/1999/xlink" width="47.60607" height="47.60607" viewBox="0,0,47.60607,47.60607"><g transform="translate(-296.19697,-156.19696)"><g fill="none" stroke="#ffffff" stroke-width="2" stroke-miterlimit="10"><path d="M330,170l-1.33483,20.0215c-0.11683,1.7535 -0.17533,2.63033 -0.554,3.29517c-0.3335,0.58533 -0.8365,1.05583 -1.44267,1.34967c-0.6885,0.33367 -1.56733,0.33367 -3.32483,0.33367h-6.68738c-1.7575,0 -2.63625,0 -3.3248,-0.33367c-0.6062,-0.29383 -1.10917,-0.76433 -1.44262,-1.34967c-0.37875,-0.66483 -0.4372,-1.54167 -0.5541,-3.29517l-1.33477,-20.0215M306.66667,170h26.66667M326.66667,170l-0.451,-1.35322c-0.43717,-1.31137 -0.65583,-1.96705 -1.06117,-2.45182c-0.358,-0.42808 -0.81767,-0.75943 -1.337,-0.96367c-0.58817,-0.2313 -1.27917,-0.2313 -2.6615,-0.2313h-2.312c-1.38233,0 -2.07333,0 -2.66148,0.2313c-0.51932,0.20423 -0.97905,0.53558 -1.33703,0.96367c-0.4054,0.48477 -0.62395,1.14045 -1.06108,2.45182l-0.45107,1.35322M323.33333,176.66667v11.66667M316.66667,176.66667v11.66667" stroke-linecap="round" stroke-linejoin="round"/><path d="M306.34591,202.80303c-5.05282,0 -9.14894,-4.09612 -9.14894,-9.14894v-27.30819c0,-5.05282 4.09612,-9.14894 9.14894,-9.14894h27.30819c5.05282,0 9.14894,4.09612 9.14894,9.14894v27.30819c0,5.05282 -4.09612,9.14894 -9.14894,9.14894z" stroke-linecap="butt" stroke-linejoin="miter"/></g></g></svg>