<svg version="1.1" xmlns="http://www.w3.org/2000/svg" xmlns:xlink="http://www.w3.org/1999/xlink" width="47.60607" height="47.60607" viewBox="0,0,47.60607,47.60607"><g transform="translate(-296.19697,-156.19696)"><g stroke-miterlimit="10"><path d="M306.34591,202.80303c-5.05282,0 -9.14894,-4.09612 -9.14894,-9.14894v-27.30819c0,-5.05282 4.09612,-9.14894 9.14894,-9.14894h27.30819c5.05282,0 9.14894,4.09612 9.14894,9.14894v27.30819c0,5.05282 -4.09612,9.14894 -9.14894,9.14894z" fill="none" stroke="#ffffff" stroke-width="2"/><path d="M310.11831,181.68815c-0.23251,0.56435 -0.10429,1.21673 0.32973,1.65211l8.4816,8.47799c0.59053,0.59294 1.55113,0.59294 2.14407,0l8.47679,-8.47799c0.43643,-0.43537 0.56435,-1.08776 0.32973,-1.65211c-0.23718,-0.5669 -0.78768,-0.93682 -1.39943,-0.93682h-3.70753v-10.99468c0,-1.11575 -0.90356,-2.01961 -2.016,-2.01961h-5.51194c-1.1147,0 -2.01825,0.90386 -2.01825,2.01961v10.99468h-3.70723c-0.61205,0 -1.16466,0.36991 -1.40154,0.93682z" fill="#ffffff" stroke="none" stroke-width="1"/></g></g></svg>