<svg version="1.1" xmlns="http://www.w3.org/2000/svg" xmlns:xlink="http://www.w3.org/1999/xlink" width="41.58333" height="41.58333" viewBox="0,0,41.58333,41.58333"><g transform="translate(-299.20833,-159.20833)"><g fill="#ffffff" stroke="none" stroke-width="0" stroke-miterlimit="10"><g><path d="M320,159.20833c3.17856,0 5.7553,2.57674 5.7553,5.7553c0,3.17856 -2.57674,5.7553 -5.7553,5.7553c-3.17856,0 -5.7553,-2.57674 -5.7553,-5.7553c0,-3.17856 2.57674,-5.7553 5.7553,-5.7553z"/><path d="M320,189.28107c3.17856,0 5.7553,2.57674 5.7553,5.7553c0,3.17856 -2.57674,5.7553 -5.7553,5.7553c-3.17856,0 -5.7553,-2.57674 -5.7553,-5.7553c0,-3.17856 2.57674,-5.7553 5.7553,-5.7553z"/></g><g><path d="M299.20833,180c0,-3.17856 2.57674,-5.7553 5.7553,-5.7553c3.17856,0 5.7553,2.57674 5.7553,5.7553c0,3.17856 -2.57674,5.7553 -5.7553,5.7553c-3.17856,0 -5.7553,-2.57674 -5.7553,-5.7553z"/><path d="M329.28107,180c0,-3.17856 2.57674,-5.7553 5.7553,-5.7553c3.17856,0 5.7553,2.57674 5.7553,5.7553c0,3.17856 -2.57674,5.7553 -5.7553,5.7553c-3.17856,0 -5.7553,-2.57674 -5.7553,-5.7553z"/></g></g></g></svg>